# xmcd
#
# Track frame offsets:
#	150
#	13622
#	27260
#	41843
#	57254
#	72301
#	88098
#	103717
#	119767
#	133439
#	149746
#	164885
#	181086
#	195959
#
# Disc length: 2864 seconds
#
# Revision: 0
# Processed by: cddbd v1.5.2PL0 Copyright (c) Steve Scherf et al.
# Submitted via: EasyCDDAExtractor 15.3.0.1
#
DISCID=d70b2e0e
DTITLE=Giusy Ferreri - Girotondo 2017
DYEAR=2017
DGENRE=Italia Pop
TTITLE0=Fa Talmente Male
TTITLE1=L'amore Tante Volte
TTITLE2=Partiti Adesso
TTITLE3=Giusy Ferreri Feat Federico Zampaglione - L'amore Mi Perseguita
TTITLE4=È Finita L'estate
TTITLE5=Occhi Lucidi
TTITLE6=Col Sole E Col Buio
TTITLE7=Girotondo
TTITLE8=La Distanza
TTITLE9=Il Mondo Non Lo Sa Più Fare
TTITLE10=Tornerò Da Te
TTITLE11=Immaginami
TTITLE12=Il Resto Del Mondo È Diverso Da Te
TTITLE13=La Gigantessa
EXTD=
EXTT0=
EXTT1=
EXTT2=
EXTT3=
EXTT4=
EXTT5=
EXTT6=
EXTT7=
EXTT8=
EXTT9=
EXTT10=
EXTT11=
EXTT12=
EXTT13=
PLAYORDER=
